:SAMPLES-PER-SECOND 30
:FULLY-SPECIFIED
:DEGREES
501
root  -21.586 29.6236 -22.6882 11.0593 63.8521 -148.335
Spine  4.67304 16.3937 11.5431
Spine1  5.90765 -29.2251 -25.6178
Neck  3.97569e-016 0 -2.38542e-015
Head  -18.7028 14.7416 -6.32112
R_Clavicle  -2.52392 18.6054 -6.27603
R_UpperArm  59.1057 23.1393 -3.06777
R_Forearm  75.5321 -2.91991 7.14553
R_Hand  -39.8989 24.8716 -125.097
L_Clavicle  0.150001 2.41204 -1.78186
L_UpperArm  -33.4093 -33.4471 -11.1402
L_Forearm  -63.7402 8.26569 13.0735
L_Hand  27.2866 -35.9371 -81.6966
L_Thigh  -16.6504 41.7236 3.64641
L_Calf  5.65814 -5.95315 49.5531
L_Foot  -3.13474 -9.89665 -5.67509
L_Toe0  0.505272 0.0368142 -6.13594
R_Thigh  -12.9067 -63.2563 27.3162
R_Calf  13.2967 12.5044 44.5194
R_Foot  0.700016 1.01101 -3.8892
R_Toe0  -1.78853 -0.272788 -17.3235
502
root  -22.1451 28.3043 -21.8601 -21.8152 58.0575 -163.554
Spine  12.7822 23.1544 17.3827
Spine1  14.9768 -42.2952 -27.8899
Neck  3.97569e-016 0 -2.38542e-015
Head  -19.8053 14.5819 -5.39897
R_Clavicle  -2.80277 14.4094 -8.06994
R_UpperArm  54.5653 21.7496 3.73828
R_Forearm  65.0538 -6.01311 4.46989
R_Hand  -36.3055 48.3921 -89.1989
L_Clavicle  -0.152656 3.67826 0.386547
L_UpperArm  -32.4408 -35.2547 -9.23922
L_Forearm  -58.6031 11.4687 14.7067
L_Hand  25.8208 -37.9385 -74.324
L_Thigh  -16.8722 38.9477 1.69471
L_Calf  17.4968 -5.3434 44.2066
L_Foot  -4.52593 -16.5453 -5.65597
L_Toe0  0.505271 0.0367934 -6.13595
R_Thigh  -16.8328 -63.4879 37.5515
R_Calf  11.038 11.7586 48.2964
R_Foot  0.163018 -1.55987 -4.80216
R_Toe0  -1.78853 -0.272788 -17.3235
503
root  -22.1417 26.5657 -21.0361 -46.4763 47.8274 -173.038
Spine  19.7444 27.9466 23.0573
Spine1  20.2967 -46.8433 -28.2708
Neck  3.97569e-016 0 -2.38542e-015
Head  -17.691 14.932 -3.05728
R_Clavicle  -2.07091 9.29472 -6.98266
R_UpperArm  33.2883 28.2997 1.23677
R_Forearm  44.0497 -16.5858 11.3267
R_Hand  -4.04637 26.8291 -25.5564
L_Clavicle  -0.370577 11.3023 1.13484
L_UpperArm  -32.8423 -37.99 -0.895343
L_Forearm  -55.1379 13.0437 13.5323
L_Hand  26.3467 -39.2639 -73.1321
L_Thigh  -12.8662 36.3652 1.6592
L_Calf  22.7579 -4.70446 37.3401
L_Foot  -5.58049 -21.3474 -5.51528
L_Toe0  0.50527 0.0367724 -6.13595
R_Thigh  -17.2868 -62.2457 46.034
R_Calf  7.09143 11.1212 50.5094
R_Foot  -0.0397119 -3.28498 -6.32782
R_Toe0  -1.78853 -0.272788 -17.3235
504
root  -21.6652 24.4885 -20.5613 -63.2708 34.884 -177.371
Spine  24.8341 32.6606 28.2353
Spine1  20.6035 -45.8914 -25.5466
Neck  3.97569e-016 0 -2.38542e-015
Head  -14.8924 15.8572 1.8773
R_Clavicle  -1.16583 2.66775 -5.11857
R_UpperArm  14.4871 24.0677 5.4552
R_Forearm  34.9043 -2.81882 2.53878
R_Hand  0.0820861 11.5012 -11.5732
L_Clavicle  -0.490666 21.886 2.40234
L_UpperArm  -35.6932 -39.0814 10.4605
L_Forearm  -50.0097 12.2068 11.2031
L_Hand  27.5922 -38.0252 -78.1567
L_Thigh  -8.38174 33.2025 2.13468
L_Calf  25.3323 -4.0844 30.5678
L_Foot  -5.6492 -21.6837 -3.3118
L_Toe0  0.505269 0.0367513 -6.13595
R_Thigh  -18.1888 -61.0768 51.898
R_Calf  6.58977 11.3845 50.5153
R_Foot  -0.0136766 -4.78076 -8.72699
R_Toe0  -1.78853 -0.272788 -17.3235
505
root  -20.9015 22.2845 -20.7181 -76.8618 21.981 -179.257
Spine  28.1166 36.3459 32.2932
Spine1  18.9808 -42.5867 -22.4056
Neck  3.97569e-016 0 -2.38542e-015
Head  -11.6855 17.5363 11.0999
R_Clavicle  -0.471375 -3.69032 -3.21713
R_UpperArm  9.17805 19.4646 22.0082
R_Forearm  21.9508 17.3155 -15.0385
R_Hand  1.30228 8.11413 -1.11211
L_Clavicle  -0.341267 26.7424 4.27323
L_UpperArm  -39.5418 -34.0549 21.9769
L_Forearm  -45.8428 10.5791 10.0268
L_Hand  30.0865 -36.2254 -86.8154
L_Thigh  -8.85402 29.4543 1.00961
L_Calf  28.7529 -3.73112 27.7423
L_Foot  -5.26989 -20.1625 -1.82632
L_Toe0  0.505268 0.0367301 -6.13595
R_Thigh  -23.0012 -58.527 58.6366
R_Calf  8.75133 11.4646 49.3206
R_Foot  -0.134909 -6.36088 -9.98739
R_Toe0  -1.78853 -0.272788 -17.3235
506
root  -20.0311 20.1864 -21.5529 -89.1125 10.4757 179.885
Spine  29.0344 39.4761 32.9308
Spine1  16.1667 -38.5864 -18.1895
Neck  3.97569e-016 0 -2.38542e-015
Head  -7.42746 19.0225 23.0299
R_Clavicle  -0.150572 -6.72608 -1.93565
R_UpperArm  14.9569 16.446 43.4531
R_Forearm  11.615 31.918 -31.1896
R_Hand  1.17938 7.83746 -2.02957
L_Clavicle  -0.333692 24.7667 4.68328
L_UpperArm  -41.4868 -22.6129 31.5712
L_Forearm  -43.3689 9.57266 10.3797
L_Hand  36.6619 -36.1539 -98.8831
L_Thigh  -10.2803 25.1988 0.452696
L_Calf  28.786 -3.74357 27.9021
L_Foot  -5.46362 -20.885 -2.41621
L_Toe0  0.505267 0.0367087 -6.13595
R_Thigh  -27.1428 -54.7251 65.3246
R_Calf  8.85562 11.2044 48.386
R_Foot  -0.609514 -7.78366 -8.88511
R_Toe0  -1.78853 -0.272788 -17.3235
507
root  -19.0669 18.3857 -23.0028 -99.666 -0.580734 -179.96
Spine  27.2832 42.2955 30.1587
Spine1  11.9232 -33.5999 -12.2778
Neck  3.97569e-016 0 -2.38542e-015
Head  -3.14324 18.7394 33.673
R_Clavicle  -0.0876209 -5.38594 -1.23311
R_UpperArm  30.952 11.6307 62.7914
R_Forearm  3.56945 39.8563 -43.9298
R_Hand  -0.0649737 8.60975 -11.9198
L_Clavicle  -0.411532 19.8226 4.37352
L_UpperArm  -41.2575 -7.66901 36.5065
L_Forearm  -38.7978 9.26937 12.5696
L_Hand  43.5069 -35.0344 -111.244
L_Thigh  -8.37706 21.9727 2.47525
L_Calf  25.36 -3.64833 27.0944
L_Foot  -5.6249 -21.5888 -1.06778
L_Toe0  0.505266 0.0366872 -6.13595
R_Thigh  -28.6373 -51.6448 68.9089
R_Calf  6.22534 11.0392 48.0352
R_Foot  -0.929206 -8.18625 -7.59186
R_Toe0  -1.78853 -0.272788 -17.3235
508
root  -18.3184 17.1299 -24.9604 -108.922 -11.5475 -179.029
Spine  23.0588 42.9693 25.1878
Spine1  7.6571 -27.5472 -5.94518
Neck  3.97569e-016 0 -2.38542e-015
Head  -0.785879 17.0128 40.543
R_Clavicle  0.0644446 -3.42368 0.0171808
R_UpperArm  50.3047 3.99543 74.8187
R_Forearm  1.77664 42.1174 -48.6972
R_Hand  -2.14825 9.72877 -27.4779
L_Clavicle  -0.462638 15.2214 4.94875
L_UpperArm  -41.579 6.1616 36.8713
L_Forearm  -28.2449 10.3888 17.409
L_Hand  46.2738 -32.9483 -118.853
L_Thigh  -8.40182 21.6625 5.84813
L_Calf  23.6328 -3.6044 26.6934
L_Foot  -4.19626 -16.8167 2.68184
L_Toe0  0.505265 0.0366657 -6.13596
R_Thigh  -30.6614 -49.8997 69.1221
R_Calf  5.67363 10.8346 47.7584
R_Foot  -0.815047 -7.92612 -7.91139
R_Toe0  -1.78853 -0.272788 -17.3235
509
root  -18.0443 16.4661 -27.0313 -117.209 -22.2482 -177.389
Spine  17.3641 40.1608 18.7971
Spine1  4.53597 -19.1765 -0.421923
Neck  3.97569e-016 0 -2.38542e-015
Head  -0.357569 14.5215 44.8929
R_Clavicle  0.34082 -4.00618 1.6353
R_UpperArm  66.6114 -6.03422 79.3897
R_Forearm  6.14812 41.1091 -46.4769
R_Hand  -5.73602 12.5433 -47.2047
L_Clavicle  -0.529679 13.1434 6.21426
L_UpperArm  -42.7322 17.0206 37.6208
L_Forearm  -17.0531 11.7608 21.8186
L_Hand  44.3769 -30.2357 -121.978
L_Thigh  -10.195 23.5269 9.93896
L_Calf  18.9702 -3.86732 29.0384
L_Foot  -1.97908 -10.0968 5.37398
L_Toe0  0.505264 0.036644 -6.13596
R_Thigh  -31.9033 -50.1485 66.5506
R_Calf  8.18954 10.6873 47.6732
R_Foot  -0.734059 -8.35022 -8.84059
R_Toe0  -1.78853 -0.272788 -17.3235
510
root  -18.1807 16.2777 -28.834 -126.062 -33.043 -173.781
Spine  11.9735 34.1884 13.6471
Spine1  2.66411 -8.24631 4.13577
Neck  3.97569e-016 0 -2.38542e-015
Head  -0.0971503 10.8388 48.9679
R_Clavicle  0.465805 -7.5818 2.48739
R_UpperArm  74.7063 -14.2036 79.4278
R_Forearm  10.3551 38.1864 -40.8179
R_Hand  -8.71324 13.605 -60.8827
L_Clavicle  -0.551709 12.888 6.78111
L_UpperArm  -43.8666 30.2399 42.8835
L_Forearm  -13.3162 8.75697 20.7797
L_Hand  32.5985 -24.8469 -118.15
L_Thigh  -13.5698 26.9604 12.9149
L_Calf  8.98561 -4.87983 35.8027
L_Foot  0.0197817 -3.38004 5.13573
L_Toe0  0.505262 0.0366222 -6.13596
R_Thigh  -29.5715 -52.1253 61.1552
R_Calf  8.91552 10.757 47.1123
R_Foot  -0.988588 -9.44648 -8.69599
R_Toe0  -1.78853 -0.272788 -17.3235
511
root  -18.4418 16.3327 -30.5985 -139.229 -42.7417 -165.961
Spine  8.34793 27.6278 11.6866
Spine1  1.79333 2.23386 8.43111
Neck  3.97569e-016 0 -2.38542e-015
Head  1.50835 5.72638 52.9639
R_Clavicle  0.453359 -12.9973 2.51779
R_UpperArm  71.4437 -17.1085 78.4649
R_Forearm  14.1839 31.2714 -30.3258
R_Hand  -8.88777 11.9039 -65.4179
L_Clavicle  -0.520996 13.5901 6.41159
L_UpperArm  -49.2517 44.9397 48.4243
L_Forearm  -1.16797 3.44116 17.5716
L_Hand  28.1374 -24.9315 -110.991
L_Thigh  -15.0668 32.6234 16.6548
L_Calf  -4.53621 -6.37142 41.2771
L_Foot  4.22167 8.9137 6.93241
L_Toe0  0.505261 0.0366002 -6.13596
R_Thigh  -23.4135 -54.1271 51.854
R_Calf  6.24149 10.4697 47.2717
R_Foot  -1.12715 -10.5473 -9.11643
R_Toe0  -1.78853 -0.272788 -17.3235
512
root  -18.9736 16.4457 -32.4373 -157.37 -49.4548 -155.095
Spine  6.0077 21.4971 11.3111
Spine1  1.9676 9.61396 12.7298
Neck  3.97569e-016 0 -2.38542e-015
Head  3.55979 0.961217 56.1191
R_Clavicle  0.443932 -19.1718 2.87709
R_UpperArm  60.8211 -17.4007 77.5168
R_Forearm  17.8164 17.771 -15.4702
R_Hand  -7.87317 10.5127 -62.836
L_Clavicle  -0.471862 15.1658 5.90734
L_UpperArm  -61.7366 58.9363 52.4541
L_Forearm  23.5373 -1.34593 8.75239
L_Hand  31.7719 -32.2095 -98.4714
L_Thigh  -13.1339 39.4067 24.7696
L_Calf  -15.2513 -6.03818 41.0556
L_Foot  8.80932 18.1062 12.0755
L_Toe0  0.50526 0.0365782 -6.13596
R_Thigh  -13.3918 -55.5533 39.8821
R_Calf  3.37073 9.30777 50.7994
R_Foot  -0.668266 -10.791 -11.63
R_Toe0  -1.78853 -0.272788 -17.3235
513
root  -19.861 16.642 -33.953 -179.469 -53.0742 -141.153
Spine  5.07295 15.7913 13.1541
Spine1  3.30421 14.0544 16.4393
Neck  3.97569e-016 0 -2.38542e-015
Head  3.05071 -0.758481 58.718
R_Clavicle  0.378886 -25.0302 3.76693
R_UpperArm  50.5913 -17.6372 76.4449
R_Forearm  18.8901 -0.913008 0.878424
R_Hand  -7.03933 9.66234 -59.7711
L_Clavicle  -0.403532 18.1675 5.67095
L_UpperArm  -65.1942 68.2146 63.4392
L_Forearm  38.1496 -1.83032 -1.8172
L_Hand  30.3333 -36.177 -87.1282
L_Thigh  -6.91662 44.9275 35.0097
L_Calf  -22.0001 -5.07213 38.9081
L_Foot  8.26445 14.5942 13.9329
L_Toe0  0.505259 0.0365561 -6.13596
R_Thigh  -2.2724 -57.0609 26.2746
R_Calf  4.53395 8.71056 54.3123
R_Foot  -0.0790829 -9.09574 -13.0474
R_Toe0  -1.78853 -0.272788 -17.3235
514
root  -20.7624 16.9837 -35.0119 154.937 -52.2857 -123.842
Spine  5.97944 11.6167 18.4487
Spine1  5.55794 16.1233 18.944
Neck  3.97569e-016 0 -2.38542e-015
Head  -1.25812 -0.0831535 60.9526
R_Clavicle  0.249968 -29.7725 4.50121
R_UpperArm  42.8302 -19.4021 75.3677
R_Forearm  12.4249 -20.7037 16.9196
R_Hand  -7.82821 13.3679 -56.2356
L_Clavicle  -0.29667 22.1384 5.96786
L_UpperArm  -55.2175 72.3595 77.4382
L_Forearm  45.4213 -5.44915 -6.4348
L_Hand  27.9841 -38.581 -77.8503
L_Thigh  0.950396 48.1271 44.4844
L_Calf  -24.8071 -5.02909 38.2163
L_Foot  6.09145 8.07317 14.5085
L_Toe0  0.505258 0.036534 -6.13596
R_Thigh  0.363626 -57.9009 12.5206
R_Calf  13.0968 10.059 50.5256
R_Foot  -0.338938 -7.72628 -10.3663
R_Toe0  -1.78853 -0.272788 -17.3235
